<svg width="16" height="16" viewBox="0 0 16 16" fill="none" xmlns="http://www.w3.org/2000/svg">
<g clip-path="url(#clip0)">
<path d="M14.5 2.5H1.5C0.947715 2.5 0.5 2.94772 0.5 3.5V14.5C0.5 15.0523 0.947715 15.5 1.5 15.5H14.5C15.0523 15.5 15.5 15.0523 15.5 14.5V3.5C15.5 2.94772 15.0523 2.5 14.5 2.5Z" stroke="#C0C0C0" stroke-width="1.5" stroke-linecap="round" stroke-linejoin="round"/>
<path d="M0.5 6.5H15.5" stroke="#C0C0C0" stroke-width="1.5" stroke-linecap="round" stroke-linejoin="round"/>
<path d="M4.5 4V0.5" stroke="#C0C0C0" stroke-width="1.5" stroke-linecap="round" stroke-linejoin="round"/>
<path d="M11.5 4V0.5" stroke="#C0C0C0" stroke-width="1.5" stroke-linecap="round" stroke-linejoin="round"/>
<path d="M3.75 9C3.70055 9 3.65222 9.01466 3.61111 9.04213C3.57 9.0696 3.53795 9.10865 3.51903 9.15433C3.50011 9.20001 3.49516 9.25028 3.5048 9.29877C3.51445 9.34727 3.53826 9.39181 3.57322 9.42678C3.60819 9.46174 3.65273 9.48555 3.70123 9.4952C3.74972 9.50484 3.79999 9.49989 3.84567 9.48097C3.89135 9.46205 3.9304 9.43 3.95787 9.38889C3.98534 9.34778 4 9.29945 4 9.25C4 9.1837 3.97366 9.12011 3.92678 9.07322C3.87989 9.02634 3.8163 9 3.75 9Z" stroke="#C0C0C0" stroke-width="1.5" stroke-linecap="round" stroke-linejoin="round"/>
<path d="M3.75 12.5C3.70055 12.5 3.65222 12.5147 3.61111 12.5421C3.57 12.5696 3.53795 12.6086 3.51903 12.6543C3.50011 12.7 3.49516 12.7503 3.5048 12.7988C3.51445 12.8473 3.53826 12.8918 3.57322 12.9268C3.60819 12.9617 3.65273 12.9855 3.70123 12.9952C3.74972 13.0048 3.79999 12.9999 3.84567 12.981C3.89135 12.962 3.9304 12.93 3.95787 12.8889C3.98534 12.8478 4 12.7994 4 12.75C4 12.6837 3.97366 12.6201 3.92678 12.5732C3.87989 12.5263 3.8163 12.5 3.75 12.5Z" stroke="#C0C0C0" stroke-width="1.5" stroke-linecap="round" stroke-linejoin="round"/>
<path d="M8 9C7.95055 9 7.90222 9.01466 7.86111 9.04213C7.82 9.0696 7.78795 9.10865 7.76903 9.15433C7.75011 9.20001 7.74516 9.25028 7.7548 9.29877C7.76445 9.34727 7.78826 9.39181 7.82322 9.42678C7.85819 9.46174 7.90273 9.48555 7.95123 9.4952C7.99972 9.50484 8.04999 9.49989 8.09567 9.48097C8.14135 9.46205 8.1804 9.43 8.20787 9.38889C8.23534 9.34778 8.25 9.29945 8.25 9.25C8.25 9.1837 8.22366 9.12011 8.17678 9.07322C8.12989 9.02634 8.0663 9 8 9Z" stroke="#C0C0C0" stroke-width="1.5" stroke-linecap="round" stroke-linejoin="round"/>
<path d="M8 12.5C7.95055 12.5 7.90222 12.5147 7.86111 12.5421C7.82 12.5696 7.78795 12.6086 7.76903 12.6543C7.75011 12.7 7.74516 12.7503 7.7548 12.7988C7.76445 12.8473 7.78826 12.8918 7.82322 12.9268C7.85819 12.9617 7.90273 12.9855 7.95123 12.9952C7.99972 13.0048 8.04999 12.9999 8.09567 12.981C8.14135 12.962 8.1804 12.93 8.20787 12.8889C8.23534 12.8478 8.25 12.7994 8.25 12.75C8.25 12.6837 8.22366 12.6201 8.17678 12.5732C8.12989 12.5263 8.0663 12.5 8 12.5Z" stroke="#C0C0C0" stroke-width="1.5" stroke-linecap="round" stroke-linejoin="round"/>
<path d="M12.25 9C12.2006 9 12.1522 9.01466 12.1111 9.04213C12.07 9.0696 12.038 9.10865 12.019 9.15433C12.0001 9.20001 11.9952 9.25028 12.0048 9.29877C12.0145 9.34727 12.0383 9.39181 12.0732 9.42678C12.1082 9.46174 12.1527 9.48555 12.2012 9.4952C12.2497 9.50484 12.3 9.49989 12.3457 9.48097C12.3914 9.46205 12.4304 9.43 12.4579 9.38889C12.4853 9.34778 12.5 9.29945 12.5 9.25C12.5 9.1837 12.4737 9.12011 12.4268 9.07322C12.3799 9.02634 12.3163 9 12.25 9Z" stroke="#C0C0C0" stroke-width="1.5" stroke-linecap="round" stroke-linejoin="round"/>
<path d="M12.25 12.5C12.2006 12.5 12.1522 12.5147 12.1111 12.5421C12.07 12.5696 12.038 12.6086 12.019 12.6543C12.0001 12.7 11.9952 12.7503 12.0048 12.7988C12.0145 12.8473 12.0383 12.8918 12.0732 12.9268C12.1082 12.9617 12.1527 12.9855 12.2012 12.9952C12.2497 13.0048 12.3 12.9999 12.3457 12.981C12.3914 12.962 12.4304 12.93 12.4579 12.8889C12.4853 12.8478 12.5 12.7994 12.5 12.75C12.5 12.6837 12.4737 12.6201 12.4268 12.5732C12.3799 12.5263 12.3163 12.5 12.25 12.5Z" stroke="#C0C0C0" stroke-width="1.5" stroke-linecap="round" stroke-linejoin="round"/>
</g>
<defs>
<clipPath id="clip0">
<rect width="16" height="16" fill="white"/>
</clipPath>
</defs>
</svg>
