<svg width="24" height="24" viewBox="0 0 24 24" fill="none" xmlns="http://www.w3.org/2000/svg">
<path d="M12 15.1579C14.1474 15.1579 15.7895 13.5158 15.7895 11.3684V3.78947C15.7895 1.64211 14.1474 0 12 0C9.85264 0 8.21053 1.64211 8.21053 3.78947V11.3684C8.21053 13.5158 9.85264 15.1579 12 15.1579ZM18.6947 11.3684C18.6947 15.1579 15.5368 17.8105 12 17.8105C8.46316 17.8105 5.30527 15.1579 5.30527 11.3684H3.1579C3.1579 15.6632 6.56843 19.2 10.7368 19.8316V24H13.2632V19.8316C17.4316 19.2 20.8421 15.6632 20.8421 11.3684H18.6947Z" fill="white"/>
</svg>
